<?xml version="1.0" encoding="utf-8"?>
<!-- Generator: Adobe Illustrator 23.0.3, SVG Export Plug-In . SVG Version: 6.00 Build 0)  -->
<svg version="1.1" id="Layer_1" xmlns="http://www.w3.org/2000/svg" xmlns:xlink="http://www.w3.org/1999/xlink" x="0px" y="0px"
	 viewBox="0 0 192 192" style="enable-background:new 0 0 192 192;" xml:space="preserve">

  <style>
    .st0 {
      fill: #347BE2;
    }
    @media (prefers-color-scheme: dark) {
      .st0 {
        fill: white;
      }
    }
  </style>
<g>
	<g>
		<path class="st0" d="M75.4,144.2l32.2,2.9c1.9,0.2,3.6-1.4,3.6-3.4v-15.1c0-1,0.7-1.7,1.7-1.7h11.3c3.4,0,6.2-2.9,6.2-6.2v-15.1
			c0-0.7,0.5-1.2,1.2-1.2h5.5c3.4,0,5.3-3.6,3.6-6.5l-9.6-14.6c-0.5-1-0.7-1.9-1-2.9c-1.7-19.2-17.8-34.1-37.2-34.1
			c-20.6,0-37.4,16.8-37.4,37.4c0,12.2,6,24.2,15.1,32.2c1.2,1,1.7,2.2,1.7,3.6v21.4C72.5,142.5,73.7,144,75.4,144.2z"/>
	</g>
	<g>
		<path class="st0" d="M17.1,105.9c-2.5-18.7,2-37.6,12.1-53.3C53,15.7,102.4,5.1,139.3,28.9l5.6,3.6l-6.9,10.7
			c-1.3,2-1.5,4.5-0.2,6.5c1,2,3.3,3.3,5.6,3.3l37.5-0.1c4.3-0.1,7.6-5.1,5.7-8.9l-15.5-34C170,7.8,168,6.5,166,6.1
			c-2.3,0-4.6,1-5.8,2.8l-7,10.9l-5.6-3.6c-44-28.4-103-15.6-131.4,28.3C3.9,63.5-1.1,85.9,1.8,108.3c0.4,4.3,4.5,7.2,8.6,6.7
			C14.7,114.1,17.7,110.3,17.1,105.9z"/>
		<path class="st0" d="M26.1,185.7c2.3,0,4.6-1,5.8-2.8l6.9-10.7l5.6,3.6c44,28.4,103,15.6,131.4-28.3c12.2-19,17.3-41.4,14.3-63.8
			c-0.4-4.3-4.5-7.2-8.6-6.7c-4.3,0.4-7.2,4.5-6.7,8.6c2.5,18.7-2,37.6-12.1,53.3c-23.8,36.9-73.2,47.6-110.1,23.8l-5.6-3.6
			l6.9-10.7c1.3-2,1.5-4.5,0.2-6.5c-1-2-3.3-3.3-5.6-3.3L11.2,139c-2.3,0-4.1,1.1-5.3,2.9c-1.2,1.8-1.2,4.1-0.4,6L21,182.1
			C22,184.2,24,185.5,26.1,185.7z"/>
	</g>
</g>
</svg>
